HIERARCHY
ROOT Hips
{
	OFFSET 0.000000 0.000000 0.000000 
	CHANNELS 6 Xposition Yposition Zposition Yrotation Zrotation Xrotation 
	JOINT Lumbar
	{
		OFFSET 0.000000 0.000000 0.000000 
		CHANNELS 3 Zrotation Xrotation Yrotation
		JOINT Neck
		{
			OFFSET 0.000000 0.445665 0.000000 
			CHANNELS 3 Zrotation Xrotation Yrotation
			End Site
			{
				OFFSET 0.000000 0.227535 0.000000 
			}
		}
		JOINT RightShoulder
		{
			OFFSET 0.019635 0.377685 0.194865 
			CHANNELS 3 Zrotation Xrotation Yrotation
			JOINT RightElbow
			{
				OFFSET 0.000000 -0.243375 0.000000 
				CHANNELS 2 Zrotation Yrotation
				JOINT RightWrist
				{
					OFFSET 0.000000 -0.264825 0.000000 
					CHANNELS 2 Zrotation Xrotation
					End Site
					{
						OFFSET 0.006600 -0.176220 0.000990 
					}
				}
			}
		}
		JOINT LeftShoulder
		{
			OFFSET 0.019635 0.377685 -0.194865 
			CHANNELS 3 Zrotation Xrotation Yrotation
			JOINT LeftElbow
			{
				OFFSET 0.000000 -0.243375 0.000000 
				CHANNELS 2 Zrotation Yrotation
				JOINT LeftWrist
				{
					OFFSET 0.000000 -0.264825 0.000000 
					CHANNELS 2 Zrotation Xrotation
					End Site
					{
						OFFSET 0.006600 -0.176220 -0.000990 
					}
				}
			}
		}
	}
	JOINT RightHip
	{
		OFFSET 0.052140 -0.069960 0.075570 
		CHANNELS 3 Zrotation Xrotation Yrotation
		JOINT RightKnee
		{
			OFFSET 0.000000 -0.402270 0.000000 
			CHANNELS 1 Zrotation
			JOINT RightAnkle
			{
				OFFSET 0.000000 -0.404085 0.000000 
				CHANNELS 3 Zrotation Xrotation Yrotation
				End Site
				{
					OFFSET 0.204105 -0.089430 0.008415 
				}
			}
		}
	}
	JOINT LeftHip
	{
		OFFSET 0.052140 -0.069960 -0.075570 
		CHANNELS 3 Zrotation Xrotation Yrotation
		JOINT LeftKnee
		{
			OFFSET 0.000000 -0.402270 0.000000 
			CHANNELS 1 Zrotation
			JOINT LeftAnkle
			{
				OFFSET 0.000000 -0.404085 0.000000 
				CHANNELS 3 Zrotation Xrotation Yrotation
				End Site
				{
					OFFSET 0.204105 -0.089430 -0.008415 
				}
			}
		}
	}
}
MOTION
Frames: 33
Frame Time: 0.02
0.0851 0.00817 0.06771 345.99522 -7.81084 -1.04994 41.18864 -5.54151 -9.76369 -15.1832 12.15743 -0.83079 -49.87959 -7.80934 -18.35199 40.22427 80.9126 -37.00372 -3.64087 -64.13331 48.28274 -31.37828 117.69944 -122.63413 -55.38108 7.72423 15.15989 0.17114 -21.63385 -48.47152 -22.08078 -0.83538 -1.59076 19.34645 0.74101 16.54743 -25.58013 -7.30733 4.85861 3.25379
0.0861 0.00852 0.06712 346.68357 -7.90129 -1.07391 41.24798 -5.51865 -9.28491 -15.33993 11.22792 -0.83079 -49.82144 -7.72709 -18.12165 40.45965 80.78519 -36.78745 -3.64145 -64.17014 47.97952 -30.78816 117.68244 -123.24477 -54.97564 7.83258 15.18331 0.27629 -21.67404 -48.31022 -22.09794 -0.82473 -1.58455 19.43163 0.61815 16.11761 -25.60047 -7.27208 4.82558 3.23279
0.08719 0.00885 0.06672 347.38447 -7.99712 -1.09176 41.31052 -5.50876 -8.8175 -15.51234 10.25369 -0.83079 -49.77349 -7.56199 -18.06181 40.70513 80.77154 -36.84349 -3.6576 -64.15629 47.7 -30.25537 117.66268 -123.74585 -54.47597 7.93352 15.2122 0.42375 -21.61808 -48.13778 -22.113 -0.81141 -1.57645 19.52962 0.44286 15.41818 -25.62813 -7.26284 4.81379 3.22539
0.08824 0.0092 0.06625 348.08059 -8.08938 -1.11236 41.3703 -5.49469 -8.34477 -15.67806 9.30447 -0.83079 -49.72693 -7.43404 -17.91738 40.94947 80.70706 -36.76696 -3.66585 -64.16742 47.4085 -29.6964 117.64563 -124.3012 -54.0223 8.03857 15.2353 0.5562 -21.59984 -47.96657 -22.12844 -0.79908 -1.56906 19.61882 0.29591 14.85382 -25.65175 -7.24094 4.79091 3.21096
0.08928 0.0095 0.0657 348.77233 -8.18605 -1.13234 41.43602 -5.47299 -7.87143 -15.843 8.33043 -0.83079 -49.65804 -7.31101 -17.79059 41.1803 80.62976 -36.71494 -3.67599 -64.17377 47.11825 -29.13069 117.62231 -124.8501 -53.55827 8.14158 15.27184 0.67211 -21.60622 -47.80935 -22.14688 -0.78802 -1.56253 19.71945 0.13036 14.24002 -25.67816 -7.22227 4.77358 3.19981
0.09037 0.00989 0.06536 349.47631 -8.27504 -1.15244 41.48963 -5.4704 -7.40285 -16.01236 7.40026 -0.83079 -49.63609 -7.15588 -17.67707 41.44107 80.61254 -36.68477 -3.68736 -64.17669 46.83126 -28.5954 117.61112 -125.38156 -53.09247 8.24708 15.2817 0.83069 -21.53998 -47.62306 -22.15777 -0.77349 -1.5536 19.79991 -0.00901 13.66439 -25.70064 -7.20315 4.74996 3.18516
0.09164 0.01054 0.06557 350.21163 -8.3402 -1.1747 41.51271 -5.51739 -6.94129 -16.1965 6.59197 -0.83079 -49.75133 -6.94789 -17.49575 41.78375 80.69548 -36.60445 -3.68701 -64.18284 46.5636 -28.13088 117.63816 -125.89265 -52.6426 8.35575 15.21984 1.11305 -21.28085 -47.33813 -22.15571 -0.75068 -1.53931 19.81964 -0.06385 13.25218 -25.70997 -7.1768 4.70362 3.15772
0.09297 0.01126 0.06598 350.95882 -8.39762 -1.19749 41.52254 -5.58318 -6.48514 -16.38326 5.83207 -0.83079 -49.91134 -6.70868 -17.33176 42.15543 80.84081 -36.54422 -3.689 -64.18673 46.29653 -27.69613 117.67683 -126.38822 -52.19428 8.46776 15.13112 1.43371 -20.95469 -47.02971 -22.14494 -0.72432 -1.52249 19.81919 -0.09043 12.88802 -25.71526 -7.14909 4.65036 3.12632
0.09426 0.01193 0.06629 351.70019 -8.45959 -1.21976 41.53636 -5.64048 -6.02856 -16.56457 5.057 -0.83079 -50.04384 -6.47169 -17.20557 42.51301 80.98586 -36.50735 -3.69817 -64.19098 46.01891 -27.248 117.70759 -126.88821 -51.7461 8.58189 15.05176 1.7264 -20.66966 -46.74407 -22.13312 -0.69912 -1.50625 19.82922 -0.12973 12.5072 -25.7227 -7.12177 4.60043 3.0966
0.0956 0.0127 0.06662 352.44364 -8.51779 -1.24241 41.55997 -5.69815 -5.56279 -16.76448 4.25062 -0.83079 -50.20666 -6.27691 -16.90405 42.87623 81.02468 -36.35073 -3.67539 -64.19641 45.7839 -26.80016 117.74933 -127.39486 -51.29061 8.6813 14.98172 2.06584 -20.33669 -46.40106 -22.14165 -0.6757 -1.49231 19.8338 -0.17167 12.09753 -25.72887 -7.09625 4.55035 3.06773
0.09685 0.01327 0.06696 353.18561 -8.58143 -1.26522 41.55864 -5.75914 -5.11858 -16.92597 3.52267 -0.83079 -50.3172 -5.99473 -16.95501 43.23272 81.28754 -36.43462 -3.71658 -64.19944 45.46193 -26.35923 117.771 -127.88639 -50.85259 8.81115 14.88942 2.31559 -20.08834 -46.17948 -22.10664 -0.64778 -1.47307 19.84523 -0.20034 11.75992 -25.73687 -7.06639 4.49878 3.03611
0.09798 0.01329 0.06723 353.9187 -8.66624 -1.28231 41.50326 -5.82654 -4.72184 -16.98134 2.99045 -0.83079 -50.2688 -5.41928 -18.10278 43.57842 82.24635 -37.26612 -3.95945 -64.19661 44.88376 -25.92081 117.73431 -128.32893 -50.45675 9.03372 14.71189 2.31546 -20.09526 -46.23462 -21.9461 -0.60838 -1.43936 19.87668 -0.20201 11.63655 -25.74879 -7.02416 4.44385 2.99655
0.09901 0.01309 0.06749 354.65015 -8.75605 -1.30081 41.42116 -5.89616 -4.34875 -16.99774 2.53749 -0.83079 -50.1667 -4.76773 -19.58197 43.91375 83.41209 -38.32244 -4.26218 -64.19151 44.22137 -25.49027 117.67699 -128.75797 -50.07978 9.28498 14.51877 2.22225 -20.18908 -46.42387 -21.74347 -0.56465 -1.40056 19.91648 -0.19036 11.58087 -25.76289 -6.97764 4.38771 2.95451
0.1 0.01298 0.06777 355.38354 -8.84067 -1.32254 41.34357 -5.96359 -3.97154 -17.03149 2.05426 -0.83079 -50.0917 -4.19143 -20.82235 44.24369 84.42 -39.21484 -4.52006 -64.18773 43.60728 -25.06136 117.62927 -129.20268 -49.6986 9.51705 14.35235 2.16665 -20.24027 -46.59522 -21.56503 -0.52276 -1.36436 19.95478 -0.18294 11.47719 -25.77752 -6.9334 4.33268 2.91443
0.10134 0.01292 0.06802 356.11237 -8.93701 -1.32755 41.29736 -6.03695 -3.56573 -17.06687 1.54803 -0.83079 -50.00752 -3.44537 -22.4277 44.61628 85.69355 -40.36339 -4.85074 -64.18317 42.94902 -24.60958 117.58129 -129.6122 -49.29971 9.77564 14.10123 2.13197 -20.30263 -46.58803 -21.36491 -0.48098 -1.32667 19.98231 -0.18291 11.44563 -25.78624 -6.88765 4.27515 2.87081
0.10193 0.0127 0.06832 356.85006 -9.01066 -1.36821 41.18009 -6.09788 -3.22607 -17.08957 1.10837 -0.83079 -49.92832 -3.03138 -23.36145 44.89845 86.46956 -41.03832 -5.04619 -64.17906 42.36513 -24.20933 117.52845 -130.08494 -48.94128 9.98521 14.0244 2.03144 -20.36282 -46.97982 -21.20006 -0.43838 -1.29114 20.03503 -0.16386 11.28203 -25.80705 -6.84414 4.2225 2.83389
0.10054 0.01205 0.06869 357.61341 -9.01635 -1.50241 40.86892 -6.12706 -3.05415 -17.08676 0.82925 -0.83079 -49.8825 -3.58625 -22.27323 44.9219 85.75738 -40.29261 -4.83486 -64.1827 41.98619 -23.92828 117.47017 -130.79807 -48.69836 10.05713 14.42193 1.76847 -20.3997 -48.48197 -21.1431 -0.39108 -1.26078 20.15076 -0.1034 10.71393 -25.86754 -6.80706 4.185 2.81729
0.0984 0.01124 0.06912 358.38559 -8.99966 -1.67307 40.48789 -6.14306 -2.94946 -17.07257 0.61494 -0.83079 -49.842 -4.47152 -20.51458 44.85625 84.54948 -39.07414 -4.48912 -64.18594 41.68855 -23.70239 117.40706 -131.56481 -48.49439 10.07798 14.99712 1.44269 -20.43083 -50.37185 -21.12317 -0.34372 -1.23313 20.29234 -0.02338 10.01453 -25.93893 -6.77254 4.15231 2.80736
0.09659 0.01052 0.06956 359.15305 -8.99616 -1.83024 40.14183 -6.16286 -2.82018 -17.0635 0.37317 -0.83079 -49.7947 -5.18431 -19.11832 44.83945 83.6093 -38.10868 -4.21682 -64.18528 41.36796 -23.46525 117.34425 -132.2647 -48.2665 10.11888 15.49871 1.14794 -20.46261 -52.05908 -21.08615 -0.29876 -1.20563 20.42536 0.05328 9.3906 -26.00077 -6.73742 4.11648 2.79356
0.09484 0.00973 0.06987 359.92315 -8.98077 -1.97525 39.78175 -6.19166 -2.66736 -17.05304 0.12551 -0.83079 -49.76448 -5.99018 -17.48643 44.78899 82.49494 -36.98599 -3.89332 -64.20112 40.9869 -23.17098 117.28893 -133.13898 -48.06367 10.17344 15.97137 0.84027 -20.50644 -53.86889 -21.04849 -0.24388 -1.17226 20.54588 0.10897 8.70327 -26.08177 -6.69983 4.08434 2.78309
0.09277 0.00903 0.07046 360.69027 -8.98389 -2.15324 39.43398 -6.19894 -2.57821 -17.04362 -0.09519 -0.83079 -49.70015 -6.67979 -16.18625 44.78514 81.62582 -36.08056 -3.64517 -64.18333 40.75024 -23.00757 117.21689 -133.6686 -47.81997 10.1879 16.54445 0.54483 -20.52173 -55.50583 -21.02181 -0.20942 -1.15167 20.69765 0.21041 8.1148 -26.12582 -6.66795 4.04601 2.76748
0.08994 0.00873 0.07182 361.44326 -9.05062 -2.42155 39.14298 -6.1467 -2.65684 -17.03743 -0.26087 -0.83079 -49.54538 -6.98438 -15.92419 44.95342 81.5285 -35.84519 -3.62451 -64.06613 40.90908 -23.20093 117.10223 -133.18608 -47.43397 10.09707 17.37096 0.3078 -20.46605 -56.64194 -21.01361 -0.2338 -1.16707 20.93575 0.45401 7.84166 -26.06206 -6.65215 3.98655 2.7343
0.0868 0.00852 0.07346 362.19353 -9.1351 -2.71999 38.86585 -6.07389 -2.79536 -17.03351 -0.40151 -0.83079 -49.35585 -7.15824 -16.02358 45.16795 81.69826 -35.85078 -3.68575 -63.91643 41.20732 -23.52187 116.97075 -132.3648 -47.00926 9.96907 18.28895 0.08429 -20.37939 -57.57981 -21.01563 -0.27837 -1.19503 21.20281 0.73914 7.67103 -25.96142 -6.64187 3.92113 2.69599
0.08381 0.00819 0.07496 362.94767 -9.20716 -2.99961 38.57884 -6.01261 -2.90105 -17.03016 -0.55153 -0.83079 -49.17869 -7.38078 -15.98542 45.34686 81.7632 -35.77654 -3.71898 -63.78585 41.43182 -23.77913 116.84529 -131.72838 -46.61506 9.86222 19.15206 -0.15139 -20.30328 -58.557 -21.01532 -0.31202 -1.21629 21.45286 0.99151 7.44547 -25.87958 -6.62849 3.86049 2.66127
0.08074 0.00817 0.07654 363.6915 -9.29803 -3.30327 38.30455 -5.94151 -3.03351 -17.01899 -0.70717 -0.83079 -49.01445 -7.65841 -15.81819 45.58324 81.74429 -35.5663 -3.71186 -63.63652 41.70476 -24.06443 116.72577 -130.95905 -46.16714 9.73455 20.07693 -0.36511 -20.24525 -59.74937 -21.00759 -0.35275 -1.24169 21.72156 1.30278 7.24755 -25.78912 -6.61766 3.79176 2.62174
0.07778 0.00754 0.07802 364.45541 -9.35271 -3.56216 38.00784 -5.88633 -3.12264 -17.02561 -0.84666 -0.83079 -48.81712 -7.78807 -16.0057 45.71339 81.96583 -35.69559 -3.80597 -63.519 41.90661 -24.31834 116.59088 -130.39074 -45.82213 9.64345 20.89334 -0.61901 -20.13808 -60.45745 -21.01592 -0.3839 -1.26161 21.9561 1.50153 7.02194 -25.70823 -6.60282 3.7378 2.59057
0.07518 0.00515 0.07916 365.28093 -9.31649 -3.70198 37.64775 -5.8783 -3.08564 -17.07364 -0.94202 -0.83079 -48.51795 -7.52177 -17.16057 45.52748 82.82184 -36.76558 -4.19517 -63.49281 41.8975 -24.47662 116.40916 -130.41099 -45.76317 9.6502 21.38047 -1.00039 -19.94076 -59.73547 -21.07766 -0.38032 -1.26173 22.10544 1.37451 6.66155 -25.65813 -6.57535 3.73127 2.58693
0.07271 0.00215 0.08019 366.12573 -9.24113 -3.79357 37.26481 -5.88714 -3.0015 -17.14067 -1.02304 -0.83079 -48.18981 -7.11333 -18.64867 45.2353 83.90545 -38.15892 -4.67784 -63.50029 41.80841 -24.59488 116.21391 -130.6517 -45.8094 9.69705 21.75583 -1.42034 -19.68949 -58.55645 -21.15308 -0.367 -1.25622 22.21656 1.13366 6.27604 -25.61964 -6.5437 3.73888 2.59131
0.0702 -0.00053 0.08127 366.95802 -9.17465 -3.89887 36.89116 -5.88986 -2.93272 -17.20408 -1.11505 -0.83079 -47.8878 -6.78059 -19.938 45.00016 84.86506 -39.36691 -5.09453 -63.49563 41.74222 -24.71601 116.03077 -130.82676 -45.81346 9.73453 22.18626 -1.81306 -19.43617 -57.67852 -21.21418 -0.36031 -1.25431 22.33399 0.948 5.92517 -25.57897 -6.51401 3.73649 2.58984
0.06759 -0.00338 0.08236 367.80586 -9.14517 -4.03876 36.52172 -5.88642 -2.88997 -17.24735 -1.18856 -0.83079 -47.53139 -6.39535 -21.44088 44.73111 85.92445 -40.74848 -5.61152 -63.47767 41.736 -24.90453 115.82292 -130.85441 -45.79628 9.73553 22.60174 -2.24444 -19.28779 -56.40342 -21.30894 -0.34505 -1.24837 22.49778 0.7491 5.48203 -25.52441 -6.48408 3.7487 2.5973
0.06522 -0.00602 0.0834 368.62616 -9.03061 -4.09619 36.13899 -5.89873 -2.78314 -17.33585 -1.29589 -0.83079 -47.27994 -6.08898 -22.57153 44.50502 86.82168 -41.83803 -5.94286 -63.49436 41.58623 -24.94373 115.66222 -131.23307 -45.84396 9.81975 23.02084 -2.60697 -18.91613 -55.84484 -21.33786 -0.34506 -1.24939 22.55727 0.55034 5.2209 -25.50144 -6.45379 3.73433 2.58841
0.06351 -0.00797 0.0843 369.36351 -8.67773 -3.92483 35.71607 -5.96223 -2.49252 -17.55481 -1.51446 -0.83079 -47.342 -6.02077 -22.60987 44.43977 87.25846 -42.07884 -5.72028 -63.61169 41.04054 -24.56069 115.64669 -132.6399 -46.0882 10.14829 23.4744 -2.74872 -17.87283 -57.41474 -21.17128 -0.38951 -1.27035 22.32299 0.3784 5.49375 -25.56825 -6.42187 3.63969 2.52999
0.06203 -0.00967 0.08516 370.07283 -8.24293 -3.67419 35.28226 -6.03902 -2.14225 -17.81662 -1.76494 -0.83079 -47.50772 -6.03974 -22.25806 44.41863 87.51577 -42.00776 -5.31064 -63.76068 40.35631 -24.03195 115.67719 -134.37407 -46.38721 10.55502 23.93538 -2.82318 -16.61799 -59.71313 -20.93968 -0.44964 -1.29859 21.98767 0.21054 5.94587 -25.6657 -6.39001 3.51842 2.45528
